<?xml version="1.0" encoding="utf-8"?>
<!-- Generator: Adobe Illustrator 24.1.1, SVG Export Plug-In . SVG Version: 6.00 Build 0)  -->
<svg version="1.1" xmlns="http://www.w3.org/2000/svg" xmlns:xlink="http://www.w3.org/1999/xlink" x="0px" y="0px"
	 viewBox="0 0 304.59 304.6" style="enable-background:new 0 0 304.59 304.6;" xml:space="preserve">
<style type="text/css">
	.st0{fill:#F4F4F4;}
	.st1{fill:#F4F4F4;stroke:#1E1E1C;stroke-miterlimit:10;}
	.st2{stroke:#1E1E1C;}
</style>
<g id="Layer_2">
	<rect x="0.5" class="st0" width="304.1" height="304.1"/>
</g>
<g id="Layer_1">
	<g>
		<circle class="st1" cx="152.3" cy="152.3" r="151.8"/>
		<path class="st1" d="M152.3,304.6C68.32,304.6,0,236.27,0,152.3C0,68.32,68.32,0,152.3,0s152.3,68.32,152.3,152.3
			C304.59,236.27,236.27,304.6,152.3,304.6z M152.3,1C68.87,1,1,68.87,1,152.3s67.87,151.3,151.3,151.3s151.3-67.87,151.3-151.3
			S235.72,1,152.3,1z"/>
	</g>
	<g>
		<path class="st2" d="M87.35,82.95v12.69h14.66V82.95h3.96v30.32h-3.96V99.06H87.35v14.21h-3.91V82.95H87.35z"/>
	</g>
	<g>
		<path class="st2" d="M99.14,212.25H87.35v10.93h13.14v3.28H83.44v-30.32h16.37v3.28H87.35v9.58h11.79V212.25z"/>
	</g>
	<g>
		<path class="st2" d="M166.75,99.06h-11.79v10.93h13.14v3.28h-17.05V82.95h16.37v3.28h-12.46v9.58h11.79V99.06z"/>
	</g>
	<g>
		<path class="st2" d="M204,113.27V82.95h4.27l9.72,15.34c2.25,3.55,4,6.75,5.44,9.85l0.09-0.04c-0.36-4.05-0.45-7.74-0.45-12.46
			V82.95h3.69v30.32h-3.96l-9.63-15.38c-2.11-3.37-4.14-6.84-5.67-10.12l-0.13,0.04c0.23,3.82,0.31,7.47,0.31,12.51v12.96H204z"/>
	</g>
	<g>
		<path class="st2" d="M204,226.46v-30.32h4.27l9.72,15.34c2.25,3.55,4,6.75,5.44,9.85l0.09-0.04c-0.36-4.05-0.45-7.74-0.45-12.46
			v-12.69h3.69v30.32h-3.96l-9.63-15.38c-2.11-3.37-4.14-6.84-5.67-10.12l-0.13,0.04c0.23,3.82,0.31,7.47,0.31,12.51v12.96H204z"/>
	</g>
</g>
</svg>
