<?xml version="1.0" encoding="utf-8"?>
<!-- Generator: Adobe Illustrator 24.1.1, SVG Export Plug-In . SVG Version: 6.00 Build 0)  -->
<svg version="1.1" id="Layer_1" xmlns="http://www.w3.org/2000/svg" xmlns:xlink="http://www.w3.org/1999/xlink" x="0px" y="0px"
	 viewBox="0 0 512 512" style="enable-background:new 0 0 512 512;" xml:space="preserve">
<style type="text/css">
	.st0{fill:#707070;}
</style>
<g id="_x37_18-_menu__x2C__user_interface__x2C__ui__x2C_">
	<g>
		<g>
			<path class="st0" d="M229.2,235.9H26.7c-3.7,0-6.7-3-6.7-6.7V26.8c0-3.7,3-6.7,6.7-6.7h202.5c3.7,0,6.7,3,6.7,6.7v202.4
				C235.9,232.9,232.9,235.9,229.2,235.9z M33.4,222.5h189.1v-189H33.4V222.5z"/>
		</g>
		<g>
			<path class="st0" d="M486.2,492.8H283.7c-3.7,0-6.7-3-6.7-6.7V283.7c0-3.7,3-6.7,6.7-6.7h202.5c3.7,0,6.7,3,6.7,6.7v202.4
				C492.9,489.8,489.9,492.8,486.2,492.8z M290.4,479.4h189.1v-189H290.4V479.4z"/>
		</g>
		<g>
			<path class="st0" d="M486.2,235.9H283.7c-3.7,0-6.7-3-6.7-6.7V26.8c0-3.7,3-6.7,6.7-6.7h202.5c3.7,0,6.7,3,6.7,6.7v202.4
				C492.9,232.9,489.9,235.9,486.2,235.9z M290.4,222.5h189.1v-189H290.4V222.5z"/>
		</g>
		<g>
			<path class="st0" d="M229.2,492.8H26.7c-3.7,0-6.7-3-6.7-6.7V283.7c0-3.7,3-6.7,6.7-6.7h202.5c3.7,0,6.7,3,6.7,6.7v202.4
				C235.9,489.8,232.9,492.8,229.2,492.8z M33.4,479.4h189.1v-189H33.4V479.4z"/>
		</g>
	</g>
</g>
<g id="Layer_1_1_">
</g>
</svg>
